<?xml version="1.0" ?><svg class="icon icon-tabler icon-tabler-brand-steam" fill="none" height="24" stroke="currentColor" stroke-linecap="round" stroke-linejoin="round" stroke-width="2" viewBox="0 0 24 24" width="24" xmlns="http://www.w3.org/2000/svg"><path d="M0 0h24v24H0z" fill="none" stroke="none"/><path d="M16.5 5a4.5 4.5 0 1 1 -.653 8.953l-4.347 3.009l0 .038a3 3 0 0 1 -2.824 2.995l-.176 .005a3 3 0 0 1 -2.94 -2.402l-2.56 -1.098v-3.5l3.51 1.755a2.989 2.989 0 0 1 2.834 -.635l2.727 -3.818a4.5 4.5 0 0 1 4.429 -5.302z"/><circle cx="16.5" cy="9.5" fill="currentColor" r="1"/></svg>